# xmcd
#
# Track frame offsets:
#	150
#	15582
#	35166
#	51422
#	65372
#
# Disc length: 1140 seconds
#
# Revision: 3
# Processed by: cddbd v1.5.1PL0 Copyright (c) Steve Scherf et al.
# Submitted via: EasyCDDAExtractor 6.5.0.1
#
DISCID=40047205
DTITLE=Her Own Escape - The Nights We Wasted
DYEAR=2004
DGENRE=Indie
TTITLE0=Time will tell
TTITLE1=Let It Go
TTITLE2=Always
TTITLE3=Slowly Downward
TTITLE4=Ships do sail
EXTD=
EXTT0=
EXTT1=
EXTT2=
EXTT3=
EXTT4=
PLAYORDER=
